<?xml version="1.0" standalone="no"?>
<!DOCTYPE svg PUBLIC "-//W3C//DTD SVG 20010904//EN"
 "http://www.w3.org/TR/2001/REC-SVG-20010904/DTD/svg10.dtd">
<svg version="1.0" xmlns="http://www.w3.org/2000/svg"
 width="411.000000pt" height="411.000000pt" viewBox="0 0 411.000000 411.000000"
 preserveAspectRatio="xMidYMid meet">
<metadata>
Created by potrace 1.11, written by Peter Selinger 2001-2013
</metadata>
<g transform="translate(0.000000,411.000000) scale(0.100000,-0.100000)"
fill="#000000" stroke="none">
<path d="M1983 3790 c-18 -10 -37 -28 -42 -39 -7 -13 -11 -142 -11 -371 l0
-352 29 -29 c28 -28 37 -31 81 -31 41 0 49 3 79 31 l31 29 0 354 c0 303 -2
357 -16 376 -33 47 -102 62 -151 32z"/>
<path d="M823 3335 c-38 -16 -53 -42 -53 -91 0 -36 12 -50 252 -291 275 -276
286 -283 350 -246 36 21 54 66 44 106 -6 26 -499 526 -519 528 -7 0 -19 2 -28
4 -8 1 -29 -3 -46 -10z"/>
<path d="M3215 3341 c-19 -8 -446 -428 -500 -492 -35 -43 -34 -89 5 -127 25
-26 37 -30 71 -28 40 3 53 15 295 258 252 252 254 254 254 296 0 34 -6 48 -26
67 -15 14 -33 25 -40 25 -7 0 -18 2 -26 4 -7 3 -22 1 -33 -3z"/>
<path d="M1975 2679 c-139 -20 -264 -81 -359 -175 -190 -191 -238 -477 -122
-717 58 -118 142 -206 263 -275 46 -25 126 -56 140 -54 2 1 17 -4 35 -9 43
-12 179 -12 243 0 150 29 301 126 385 246 36 53 79 136 85 165 2 13 10 39 16
59 19 56 16 235 -5 306 -71 239 -276 421 -506 450 -86 11 -119 11 -175 4z
m190 -204 c116 -31 223 -120 275 -230 117 -248 -17 -530 -285 -601 -250 -67
-515 128 -530 390 -16 292 257 514 540 441z"/>
<path d="M353 2138 c-63 -30 -61 -148 4 -177 16 -7 139 -11 374 -11 299 0 353
2 373 15 29 19 48 62 42 95 -2 14 -5 29 -5 33 -1 4 -13 19 -27 32 l-27 25
-356 -1 c-228 0 -364 -4 -378 -11z"/>
<path d="M3009 2137 c-29 -23 -50 -64 -45 -91 18 -98 9 -96 421 -96 406 0 403
-1 420 89 6 34 -13 76 -44 94 -26 15 -68 17 -383 17 -262 -1 -357 -4 -369 -13z"/>
<path d="M1274 1405 c-12 -8 -128 -121 -257 -250 -257 -257 -271 -277 -236
-333 22 -38 48 -52 90 -52 30 0 59 26 291 258 230 229 258 261 258 289 0 18
-5 43 -11 56 -20 44 -94 62 -135 32z"/>
<path d="M2720 1392 c-23 -23 -30 -39 -30 -69 0 -36 11 -49 258 -295 241 -242
260 -258 293 -258 70 0 122 73 93 132 -8 14 -123 136 -256 269 -229 228 -245
242 -285 247 -37 4 -46 1 -73 -26z"/>
<path d="M1994 1141 c-12 -5 -31 -22 -43 -37 -21 -26 -21 -34 -21 -378 0 -349
0 -351 23 -377 45 -54 116 -57 167 -9 l30 28 0 356 0 356 -27 30 c-30 34 -89
48 -129 31z"/>
</g>
</svg>
